<?xml version="1.0" standalone="no"?>
<!DOCTYPE svg PUBLIC "-//W3C//DTD SVG 20010904//EN"
 "http://www.w3.org/TR/2001/REC-SVG-20010904/DTD/svg10.dtd">
<svg version="1.0" xmlns="http://www.w3.org/2000/svg"
 width="5000.000000pt" height="2629.000000pt" viewBox="0 0 5000.000000 2629.000000"
 preserveAspectRatio="xMidYMid meet">

<g transform="translate(0.000000,2629.000000) scale(0.100000,-0.100000)"
fill="#000000" stroke="none">
<path d="M26524 26199 c13 -35 34 -89 46 -119 66 -165 270 -766 270 -794 0 -4
-44 -6 -97 -2 -280 16 -1378 28 -2088 23 -1091 -9 -2035 -46 -3030 -117 -4472
-323 -8631 -1267 -12100 -2747 -110 -47 -225 -96 -255 -110 -30 -14 -116 -52
-190 -85 -392 -175 -1053 -498 -1428 -697 -1166 -619 -2157 -1266 -3057 -1995
-408 -331 -679 -577 -1106 -1006 l-346 -347 -27 96 c-77 268 -176 675 -212
868 -10 51 -21 90 -25 87 -17 -10 -382 -398 -508 -539 -106 -119 -273 -315
-388 -455 -471 -575 -955 -1344 -1253 -1990 -385 -835 -596 -1598 -687 -2490
-26 -251 -26 -1017 0 -1270 97 -962 336 -1781 782 -2685 387 -787 896 -1526
1569 -2280 150 -168 637 -664 841 -856 208 -196 598 -532 890 -765 726 -582
1655 -1203 2575 -1724 445 -252 1181 -632 1620 -837 107 -50 233 -109 280
-131 47 -22 162 -74 256 -115 94 -41 190 -84 215 -96 76 -35 557 -235 790
-329 3577 -1436 7812 -2334 12264 -2601 1679 -101 3427 -113 5095 -36 6395
298 12278 1866 16525 4403 1057 631 1999 1314 2790 2021 371 332 828 789 1126
1126 690 780 1227 1586 1616 2425 884 1905 941 3919 166 5845 -46 116 -104
252 -129 304 -24 51 -44 95 -44 98 0 15 -237 473 -324 625 -703 1237 -1719
2385 -3056 3454 -1312 1048 -2870 1975 -4710 2801 -2488 1117 -5451 1985
-8545 2502 -1982 332 -3788 513 -5963 597 l-172 7 24 -64z m-1391 -3381 c81
-38 158 -115 193 -191 22 -48 29 -81 31 -147 4 -78 -19 -202 -291 -1602 -163
-835 -296 -1520 -296 -1523 0 -3 530 -5 1178 -5 1517 0 1846 -15 2432 -106
1103 -171 1870 -556 2307 -1159 447 -617 583 -1464 408 -2545 -23 -140 -108
-584 -345 -1800 -44 -223 -140 -720 -215 -1105 -152 -784 -165 -851 -265
-1365 -106 -543 -218 -1123 -310 -1595 -94 -491 -102 -522 -137 -587 -48 -88
-152 -163 -257 -185 -82 -17 -2977 -19 -3058 -2 -119 25 -226 108 -274 214
-30 65 -46 156 -38 210 5 39 65 349 204 1065 38 195 101 519 140 720 39 201
77 397 85 435 8 39 37 187 64 330 28 143 161 829 296 1525 435 2238 408 2083
408 2355 0 195 -15 283 -66 384 -25 51 -44 73 -87 103 -146 101 -419 165 -805
188 -96 5 -622 10 -1202 10 l-1031 0 -6 -27 c-20 -104 -83 -430 -126 -653 -28
-146 -82 -425 -120 -620 -38 -195 -180 -924 -315 -1620 -135 -696 -252 -1296
-260 -1335 -8 -38 -39 -200 -70 -360 -31 -159 -85 -438 -120 -620 -36 -181
-128 -656 -205 -1055 -180 -924 -187 -958 -201 -1000 -35 -101 -136 -200 -242
-237 -49 -17 -134 -18 -1552 -18 -1418 0 -1503 1 -1552 18 -113 39 -208 137
-246 251 -24 72 -21 161 13 336 17 85 55 283 86 440 30 157 75 386 99 510 24
124 71 367 105 540 91 468 118 609 151 780 17 85 33 164 36 175 3 11 -33 -41
-79 -116 -415 -670 -971 -1276 -1623 -1770 -381 -289 -887 -566 -1335 -732
-547 -202 -1174 -330 -1920 -392 -425 -35 -524 -37 -1866 -42 l-1360 -5 -313
-1606 c-227 -1169 -319 -1621 -336 -1659 -35 -77 -73 -122 -138 -164 -115 -74
5 -70 -1674 -67 l-1508 3 -58 23 c-74 30 -163 113 -200 185 -34 67 -51 156
-42 221 3 27 152 801 331 1720 179 919 370 1903 425 2186 135 695 231 1189
284 1460 24 124 69 353 99 510 81 416 482 2479 516 2655 16 83 63 323 104 535
41 212 107 549 146 750 39 201 84 433 100 515 16 83 34 173 39 200 6 28 35
178 65 335 128 661 418 2155 442 2270 14 68 37 148 52 178 34 70 124 153 199
184 l58 23 2915 3 c2953 3 3112 2 3490 -33 1304 -122 2299 -541 3006 -1266
376 -387 643 -826 821 -1354 52 -155 84 -276 127 -483 l32 -153 28 148 c16 81
86 445 157 808 70 363 158 813 194 1000 36 187 101 522 145 745 43 223 212
1091 375 1930 163 839 312 1606 331 1705 20 99 46 203 59 231 42 94 124 167
230 205 48 18 123 18 1565 16 l1515 -2 58 -27z m13427 -3478 c931 -51 1677
-226 2318 -545 396 -197 698 -411 993 -705 607 -606 938 -1320 1056 -2280 22
-184 26 -887 5 -1100 -111 -1156 -428 -2121 -982 -2989 -480 -751 -1268 -1524
-2004 -1964 -789 -472 -1610 -716 -2751 -816 -467 -42 -545 -44 -1927 -48
l-1357 -5 -10 -51 c-6 -29 -139 -713 -296 -1522 -338 -1739 -319 -1647 -350
-1711 -48 -98 -155 -180 -265 -204 -41 -8 -443 -10 -1555 -8 l-1500 3 -67 33
c-133 65 -215 183 -225 324 -4 66 31 257 387 2083 215 1106 404 2078 420 2160
16 83 109 557 205 1055 97 498 189 973 205 1055 16 83 124 638 240 1235 200
1030 243 1250 430 2210 43 223 104 533 134 690 30 157 89 461 131 675 42 215
89 458 105 540 254 1306 313 1603 331 1649 41 110 133 194 254 232 51 16 5781
20 6075 4z"/>
<path d="M22065 22168 c-31 -161 -606 -3123 -1279 -6583 l-1222 -6290 1420 -3
c780 -1 1421 0 1423 2 2 2 333 1698 736 3770 l732 3767 1340 -4 c1208 -3 1353
-5 1475 -20 533 -70 819 -201 969 -443 134 -218 167 -616 90 -1088 -17 -103
-1140 -5899 -1156 -5963 l-5 -23 1445 0 c1368 0 1446 1 1451 18 6 19 1123
5767 1186 6102 75 396 100 646 100 988 0 301 -17 468 -71 707 -55 243 -178
525 -311 717 -78 111 -247 291 -357 380 -234 189 -553 351 -931 473 -390 125
-898 213 -1480 255 -301 22 -824 29 -2058 30 l-1274 0 6 28 c4 15 155 792 336
1727 181 935 332 1710 335 1723 l5 22 -1424 0 -1424 0 -57 -292z"/>
<path d="M10176 18943 c-6 -21 -2556 -13144 -2556 -13155 0 -11 2858 -10 2864
0 3 5 156 787 341 1738 185 951 338 1737 341 1746 5 16 110 17 1567 21 1564 4
1624 5 2032 42 1432 130 2417 526 3340 1344 611 542 1062 1120 1396 1791 328
658 523 1366 616 2232 22 208 25 828 5 1018 -84 780 -335 1394 -785 1915 -409
475 -948 819 -1637 1043 -373 122 -775 199 -1275 247 -324 30 -770 35 -3502
35 -2602 0 -2742 -1 -2747 -17z m4789 -2073 c947 -47 1552 -258 1866 -648 308
-384 390 -1017 243 -1877 -39 -224 -99 -485 -159 -690 -289 -979 -783 -1608
-1515 -1931 -503 -222 -1062 -329 -1845 -354 -346 -11 -1972 -13 -1978 -2 -3
4 215 1137 484 2517 268 1381 509 2619 535 2753 l47 242 1057 0 c589 0 1149
-5 1265 -10z"/>
<path d="M12967 16463 c-6 -18 -16 -71 -111 -563 -31 -157 -123 -634 -206
-1060 -83 -426 -207 -1065 -276 -1420 -212 -1092 -314 -1614 -319 -1638 l-6
-24 863 5 c524 3 904 9 968 15 58 6 155 16 215 22 224 23 512 76 720 135 600
169 983 431 1292 885 224 328 398 764 517 1290 186 824 163 1478 -65 1815
-152 225 -478 392 -928 474 -395 73 -418 74 -1598 78 -1017 4 -1062 3 -1066
-14z"/>
<path d="M32575 18948 c-5 -15 -2541 -13062 -2551 -13126 l-7 -42 1434 2 1434
3 340 1750 340 1750 1560 6 c1567 6 1615 7 2045 45 984 87 1746 304 2430 692
824 466 1629 1268 2123 2114 386 660 643 1431 756 2268 47 348 55 464 55 830
0 372 -9 507 -54 774 -185 1095 -822 1949 -1815 2436 -526 258 -1094 404
-1841 475 -321 30 -782 35 -3507 35 -2181 0 -2739 -3 -2742 -12z m4975 -2087
c554 -50 931 -139 1235 -293 427 -215 647 -534 732 -1063 25 -155 25 -660 0
-855 -87 -678 -248 -1244 -486 -1715 -345 -681 -815 -1087 -1531 -1326 -438
-146 -905 -218 -1545 -239 -295 -10 -1985 -14 -1985 -5 0 5 1041 5365 1061
5463 l11 53 1191 -4 c769 -3 1236 -8 1317 -16z"/>
<path d="M35360 16464 c0 -14 -76 -411 -385 -1999 -30 -154 -106 -548 -170
-875 -64 -327 -168 -863 -231 -1190 -63 -327 -118 -606 -121 -618 l-6 -24 859
5 c885 5 973 8 1309 52 506 66 944 204 1270 402 518 313 889 902 1100 1743
203 810 215 1461 35 1847 -48 103 -89 162 -161 233 -187 184 -522 316 -980
385 -313 48 -331 48 -1451 52 -999 4 -1068 3 -1068 -13z"/>
</g>
</svg>
